<svg width="45" height="45" viewBox="0 0 45 45" fill="none" xmlns="http://www.w3.org/2000/svg">
<rect width="45" height="45" rx="10" fill="#FF6B35"/>
<path d="M23 29V16" stroke="white" stroke-width="2" stroke-linecap="round" stroke-linejoin="round"/>
<path d="M26 24C25.1348 23.7471 24.3748 23.2206 23.834 22.4995C23.2932 21.7784 23.0005 20.9014 23 20C22.9995 20.9014 22.7068 21.7784 22.166 22.4995C21.6252 23.2206 20.8652 23.7471 20 24" stroke="white" stroke-width="2" stroke-linecap="round" stroke-linejoin="round"/>
<path d="M28.598 17.5001C28.8281 17.1016 28.9635 16.6555 28.9936 16.1963C29.0237 15.7371 28.9478 15.2772 28.7717 14.852C28.5956 14.4269 28.324 14.0479 27.9781 13.7445C27.6321 13.4411 27.221 13.2213 26.7765 13.1022C26.332 12.9831 25.866 12.9679 25.4147 13.0576C24.9634 13.1474 24.5387 13.3398 24.1737 13.62C23.8086 13.9001 23.5129 14.2605 23.3093 14.6732C23.1058 15.0859 23 15.54 23 16.0001C23 15.54 22.8942 15.0859 22.6907 14.6732C22.4871 14.2605 22.1914 13.9001 21.8263 13.62C21.4613 13.3398 21.0366 13.1474 20.5853 13.0576C20.134 12.9679 19.668 12.9831 19.2235 13.1022C18.779 13.2213 18.3679 13.4411 18.0219 13.7445C17.676 14.0479 17.4044 14.4269 17.2283 14.852C17.0522 15.2772 16.9763 15.7371 17.0064 16.1963C17.0365 16.6555 17.1719 17.1016 17.402 17.5001" stroke="white" stroke-width="2" stroke-linecap="round" stroke-linejoin="round"/>
<path d="M28.997 16.125C29.5848 16.2761 30.1305 16.559 30.5928 16.9523C31.055 17.3456 31.4218 17.8389 31.6652 18.3948C31.9086 18.9508 32.0222 19.5549 31.9976 20.1613C31.973 20.7677 31.8107 21.3606 31.523 21.895" stroke="white" stroke-width="2" stroke-linecap="round" stroke-linejoin="round"/>
<path d="M29 29.0001C29.8805 29.0001 30.7364 28.7095 31.4349 28.1735C32.1335 27.6375 32.6356 26.8859 32.8635 26.0354C33.0914 25.1849 33.0323 24.283 32.6954 23.4695C32.3585 22.656 31.7625 21.9764 31 21.5361" stroke="white" stroke-width="2" stroke-linecap="round" stroke-linejoin="round"/>
<path d="M30.967 28.4834C31.0371 29.0256 30.9953 29.5765 30.8441 30.1019C30.693 30.6274 30.4357 31.1162 30.0882 31.5384C29.7407 31.9605 29.3104 32.3069 28.8238 32.5562C28.3372 32.8054 27.8046 32.9523 27.259 32.9877C26.7134 33.0231 26.1664 32.9463 25.6516 32.762C25.1369 32.5777 24.6654 32.2898 24.2662 31.9162C23.8671 31.5425 23.5488 31.091 23.331 30.5895C23.1132 30.088 23.0006 29.5471 23 29.0004C22.9994 29.5471 22.8867 30.088 22.669 30.5895C22.4512 31.091 22.1329 31.5425 21.7338 31.9162C21.3346 32.2898 20.8631 32.5777 20.3484 32.762C19.8336 32.9463 19.2866 33.0231 18.741 32.9877C18.1954 32.9523 17.6628 32.8054 17.1762 32.5562C16.6896 32.3069 16.2593 31.9605 15.9118 31.5384C15.5643 31.1162 15.307 30.6274 15.1559 30.1019C15.0047 29.5765 14.9629 29.0256 15.033 28.4834" stroke="white" stroke-width="2" stroke-linecap="round" stroke-linejoin="round"/>
<path d="M17 29.0001C16.1195 29.0001 15.2636 28.7095 14.5651 28.1735C13.8665 27.6375 13.3644 26.8859 13.1365 26.0354C12.9086 25.1849 12.9677 24.283 13.3046 23.4695C13.6415 22.656 14.2375 21.9764 15 21.5361" stroke="white" stroke-width="2" stroke-linecap="round" stroke-linejoin="round"/>
<path d="M17.003 16.125C16.4152 16.2761 15.8695 16.559 15.4072 16.9523C14.945 17.3456 14.5782 17.8389 14.3348 18.3948C14.0914 18.9508 13.9778 19.5549 14.0024 20.1613C14.027 20.7677 14.1893 21.3606 14.477 21.895" stroke="white" stroke-width="2" stroke-linecap="round" stroke-linejoin="round"/>
</svg>
